<?xml version="1.0" encoding="UTF-8"?>
<svg width="635px" height="88px" viewBox="0 0 635 88" version="1.1" xmlns="http://www.w3.org/2000/svg" xmlns:xlink="http://www.w3.org/1999/xlink">
    <!-- Generator: Sketch 52.5 (67469) - http://www.bohemiancoding.com/sketch -->
    <title>tl_name_black@3x</title>
    <desc>Created with Sketch.</desc>
    <g id="Page-1" stroke="none" stroke-width="1" fill="none" fill-rule="evenodd">
        <g id="Artboard" transform="translate(-183.000000, -269.000000)" fill="#000000">
            <path d="M244.497748,272.89009 L244.554955,285.475676 L220.470721,285.475676 L220.470721,354.925225 L207.027027,354.925225 L207.027027,285.475676 L183,285.475676 L183,272.89009 L244.497748,272.89009 Z M300.675225,291.596847 L310.686486,291.654054 L310.686486,354.868018 L300.217568,354.868018 L298.959009,347.202252 C296.060496,350.138904 292.647167,352.417635 288.718919,354.038514 C284.790671,355.659392 280.55738,356.46982 276.018919,356.46982 C269.84051,356.46982 264.234259,355.03012 259.2,352.150676 C254.165741,349.271232 250.218483,345.285836 247.358108,340.194369 C244.497733,335.102902 243.067568,329.44898 243.067568,323.232432 C243.067568,316.977747 244.497733,311.323824 247.358108,306.270495 C250.218483,301.217167 254.165741,297.260375 259.2,294.4 C264.234259,291.539625 269.84051,290.109459 276.018919,290.109459 C280.595518,290.109459 284.866947,290.929421 288.833333,292.569369 C292.79972,294.209318 296.232118,296.535721 299.130631,299.548649 L300.675225,291.596847 Z M262.174775,338.106306 C266.103023,342.034554 271.041862,343.998649 276.991441,343.998649 C282.941021,343.998649 287.870326,342.02502 291.779505,338.077703 C295.688683,334.130386 297.643243,329.182012 297.643243,323.232432 C297.643243,317.282853 295.688683,312.344014 291.779505,308.415766 C287.870326,304.487518 282.941021,302.523423 276.991441,302.523423 C271.041862,302.523423 266.103023,304.497052 262.174775,308.444369 C258.246527,312.391686 256.282432,317.320991 256.282432,323.232432 C256.282432,329.182012 258.246527,334.13992 262.174775,338.106306 Z M359.598649,291.310811 L365.204955,291.310811 L365.204955,303.61036 L358.34009,303.61036 C353.000724,303.61036 348.977191,305.097733 346.269369,308.072523 C343.561548,311.047312 342.207658,315.414085 342.207658,321.172973 L342.207658,354.925225 L329.221622,354.925225 L329.221622,291.654054 L338.031532,291.654054 L340.205405,300.292342 C344.705728,294.304625 351.170078,291.310811 359.598649,291.310811 Z M416.462613,354.925225 L397.527027,327.923423 L389.632432,327.923423 L389.632432,354.925225 L376.646396,354.925225 L376.646396,269 L389.632432,269 L389.632432,316.138739 L397.641441,316.138739 L414.689189,291.654054 L430.135135,291.654054 L408.682432,322.031081 L432.366216,354.925225 L416.462613,354.925225 Z M492.71982,291.596847 L502.731081,291.654054 L502.731081,354.868018 L492.262162,354.868018 L491.003604,347.202252 C488.105091,350.138904 484.691761,352.417635 480.763514,354.038514 C476.835266,355.659392 472.601975,356.46982 468.063514,356.46982 C461.885104,356.46982 456.278854,355.03012 451.244595,352.150676 C446.210335,349.271232 442.263077,345.285836 439.402703,340.194369 C436.542328,335.102902 435.112162,329.44898 435.112162,323.232432 C435.112162,316.977747 436.542328,311.323824 439.402703,306.270495 C442.263077,301.217167 446.210335,297.260375 451.244595,294.4 C456.278854,291.539625 461.885104,290.109459 468.063514,290.109459 C472.640113,290.109459 476.911542,290.929421 480.877928,292.569369 C484.844314,294.209318 488.276712,296.535721 491.175225,299.548649 L492.71982,291.596847 Z M454.219369,338.106306 C458.147617,342.034554 463.086457,343.998649 469.036036,343.998649 C474.985615,343.998649 479.91492,342.02502 483.824099,338.077703 C487.733278,334.130386 489.687838,329.182012 489.687838,323.232432 C489.687838,317.282853 487.733278,312.344014 483.824099,308.415766 C479.91492,304.487518 474.985615,302.523423 469.036036,302.523423 C463.086457,302.523423 458.147617,304.497052 454.219369,308.444369 C450.291122,312.391686 448.327027,317.320991 448.327027,323.232432 C448.327027,329.182012 450.291122,334.13992 454.219369,338.106306 Z M565.43018,342.396847 L599.525676,342.396847 L599.525676,354.925225 L551.929279,354.925225 L551.929279,272.89009 L565.43018,272.89009 L565.43018,342.396847 Z M662.167568,291.596847 L672.178829,291.654054 L672.178829,354.868018 L661.70991,354.868018 L660.451351,347.202252 C657.552838,350.138904 654.139509,352.417635 650.211261,354.038514 C646.283013,355.659392 642.049722,356.46982 637.511261,356.46982 C631.332852,356.46982 625.726602,355.03012 620.692342,352.150676 C615.658083,349.271232 611.710825,345.285836 608.85045,340.194369 C605.990076,335.102902 604.55991,329.44898 604.55991,323.232432 C604.55991,316.977747 605.990076,311.323824 608.85045,306.270495 C611.710825,301.217167 615.658083,297.260375 620.692342,294.4 C625.726602,291.539625 631.332852,290.109459 637.511261,290.109459 C642.087861,290.109459 646.359289,290.929421 650.325676,292.569369 C654.292062,294.209318 657.72446,296.535721 660.622973,299.548649 L662.167568,291.596847 Z M623.667117,338.106306 C627.595365,342.034554 632.534204,343.998649 638.483784,343.998649 C644.433363,343.998649 649.362668,342.02502 653.271847,338.077703 C657.181026,334.130386 659.135586,329.182012 659.135586,323.232432 C659.135586,317.282853 657.181026,312.344014 653.271847,308.415766 C649.362668,304.487518 644.433363,302.523423 638.483784,302.523423 C632.534204,302.523423 627.595365,304.497052 623.667117,308.444369 C619.738869,312.391686 617.774775,317.320991 617.774775,323.232432 C617.774775,329.182012 619.738869,334.13992 623.667117,338.106306 Z M724.580631,290.109459 C734.115213,290.109459 741.981125,293.24629 748.178604,299.520045 C754.376082,305.7938 757.474775,313.716919 757.474775,323.28964 C757.474775,332.786084 754.376082,340.690134 748.178604,347.002027 C741.981125,353.31392 734.115213,356.46982 724.580631,356.46982 C715.6944,356.46982 708.238469,353.552281 702.212613,347.717117 L700.553604,354.925225 L690.713964,354.925225 L690.713964,269 L703.7,269 L703.7,297.489189 C709.573303,292.569345 716.533443,290.109459 724.580631,290.109459 Z M708.677027,338.049099 C712.643413,342.015485 717.601322,343.998649 723.550901,343.998649 C729.50048,343.998649 734.429785,342.034554 738.338964,338.106306 C742.248143,334.178058 744.202703,329.239219 744.202703,323.28964 C744.202703,317.34006 742.248143,312.391686 738.338964,308.444369 C734.429785,304.497052 729.50048,302.523423 723.550901,302.523423 C717.601322,302.523423 712.652948,304.506587 708.705631,308.472973 C704.758314,312.439359 702.784685,317.378199 702.784685,323.28964 C702.784685,329.162942 704.748779,334.082713 708.677027,338.049099 Z M810.963514,350.977928 C806.272499,354.639207 800.075114,356.46982 792.371171,356.46982 C784.667229,356.46982 778.479378,354.505725 773.807432,350.577477 C769.135487,346.64923 766.704205,341.405288 766.513514,334.845495 L779.213514,334.845495 C779.366067,338.087253 780.691354,340.594811 783.189414,342.368243 C785.687475,344.141676 788.900581,345.028378 792.828829,345.028378 C796.413832,345.028378 799.369508,344.294227 801.695946,342.825901 C804.022384,341.357575 805.185586,339.345809 805.185586,336.790541 C805.185586,335.646391 804.909087,334.616671 804.356081,333.701351 C803.803075,332.786031 803.135665,332.05188 802.353829,331.498874 C801.571993,330.945868 800.465998,330.440543 799.035811,329.982883 C797.605623,329.525223 796.328009,329.181983 795.202928,328.953153 C794.077847,328.724323 792.561871,328.43829 790.654955,328.095045 C788.7099,327.7518 787.165321,327.465767 786.021171,327.236937 C784.877021,327.008107 783.389649,326.636264 781.559009,326.121396 C779.728369,325.606529 778.250531,325.063066 777.12545,324.490991 C776.00037,323.918916 774.770427,323.156161 773.435586,322.202703 C772.100744,321.249244 771.06149,320.190922 770.317793,319.027703 C769.574095,317.864484 768.944822,316.443852 768.429955,314.765766 C767.915088,313.087679 767.657658,311.237998 767.657658,309.216667 C767.657658,303.534056 769.91732,298.928922 774.436712,295.401126 C778.956104,291.873331 784.87699,290.109459 792.19955,290.109459 C799.522109,290.109459 805.404858,291.949606 809.847973,295.629955 C814.291088,299.310304 816.569819,304.22054 816.684234,310.360811 L804.384685,310.360811 C804.27027,307.386021 803.126137,305.10729 800.952252,303.52455 C798.778368,301.941809 795.765485,301.15045 791.913514,301.15045 C788.328511,301.15045 785.487248,301.846465 783.38964,303.238514 C781.292032,304.630563 780.243243,306.489778 780.243243,308.816216 C780.243243,309.731536 780.395794,310.541963 780.700901,311.247523 C781.006008,311.953082 781.530402,312.57282 782.274099,313.106757 C783.017797,313.640693 783.723345,314.079278 784.390766,314.422523 C785.058187,314.765767 786.049768,315.089938 787.365541,315.395045 C788.681313,315.700152 789.758705,315.938513 790.597748,316.110135 C791.436791,316.281758 792.676268,316.50105 794.316216,316.768018 C800.494625,317.797753 804.937674,318.884679 807.645495,320.028829 C814.129011,322.812927 817.56141,327.713629 817.942793,334.731081 C817.980931,335.188741 818,335.684532 818,336.218468 C818,342.358739 815.654528,347.27851 810.963514,350.977928 Z" id="tl_name_black"></path>
        </g>
    </g>
</svg>