<?xml version="1.0" encoding="UTF-8"?>
<svg width="635px" height="75px" viewBox="0 0 635 75" version="1.1" xmlns="http://www.w3.org/2000/svg" xmlns:xlink="http://www.w3.org/1999/xlink">
    <!-- Generator: Sketch 52.4 (67378) - http://www.bohemiancoding.com/sketch -->
    <title>tl_name_white</title>
    <desc>Created with Sketch.</desc>
    <g id="Page-1" stroke="none" stroke-width="1" fill="none" fill-rule="evenodd">
        <g id="Artboard" transform="translate(-183.000000, -708.000000)" fill="#FFFFFF">
            <path d="M183,708 L241.404945,708 L241.404945,722.70975 L219.556572,722.70975 L219.556572,782.827654 L204.848373,782.827654 L204.848373,722.70975 L183,722.70975 L183,708 Z M268.820359,769.119172 C274.534358,769.119172 279.817405,767.119428 283.815344,763.834576 L273.247701,737.560411 L268.820359,726.564916 L253.969542,763.834576 C257.967481,767.119428 263.10791,769.119172 268.820359,769.119172 Z M261.539118,708.142462 L276.245768,708.142462 L306.234186,782.827499 L291.525987,782.827499 L289.09839,776.829816 C283.244874,780.685137 276.245768,782.827499 268.820359,782.827499 C261.394951,782.827499 254.397395,780.685137 248.686496,776.829816 L246.258899,782.827499 L231.5507,782.827499 L261.539118,708.142462 Z M438.887015,708.142617 L411.898213,749.411766 L441.029377,782.827654 L421.608601,782.827654 L403.61555,762.264389 L394.047779,776.829971 L394.047779,782.827654 L379.33958,782.827654 L379.33958,708.142617 L394.047779,708.142617 L394.047779,750.126404 L421.608601,708.142617 L438.887015,708.142617 Z M483.43838,769.119172 C489.152379,769.119172 494.435426,767.119428 498.433365,763.834576 L487.865722,737.560411 L483.43838,726.564916 L468.587563,763.834576 C472.585502,767.119428 477.725931,769.119172 483.43838,769.119172 Z M476.157139,708.142462 L490.863789,708.142462 L520.852207,782.827499 L506.144008,782.827499 L503.716411,776.829816 C497.862895,780.685137 490.863789,782.827499 483.43838,782.827499 C476.012972,782.827499 469.015416,780.685137 463.304517,776.829816 L460.87692,782.827499 L446.168721,782.827499 L476.157139,708.142462 Z M587.961157,708.142617 L587.961157,768.117905 L623.94726,768.117905 L623.94726,782.827654 L587.961157,782.827654 L573.252958,782.827654 L573.252958,768.117905 L573.252958,708.142617 L587.961157,708.142617 Z M668.210755,769.119172 C673.923204,769.119172 679.20625,767.119428 683.204189,763.834576 L672.636546,737.560411 L668.210755,726.564916 L653.359938,763.834576 C657.357877,767.119428 662.498306,769.119172 668.210755,769.119172 Z M660.927964,708.142462 L675.636163,708.142462 L705.624582,782.827499 L690.914833,782.827499 L688.487236,776.829816 C682.633719,780.685137 675.636163,782.827499 668.210755,782.827499 C660.785347,782.827499 653.787791,780.685137 648.076892,776.829816 L645.647745,782.827499 L630.939545,782.827499 L660.927964,708.142462 Z M741.177097,768.833162 C746.317525,768.833162 750.60225,764.691056 750.60225,759.408009 C750.60225,754.124963 746.317525,749.984406 741.177097,749.984406 L726.041045,749.984406 L726.041045,768.833162 L741.177097,768.833162 Z M726.041045,731.989805 L726.041045,735.989294 L732.323964,735.989294 C736.179285,735.989294 739.32152,732.84706 739.32152,728.991738 C739.32152,725.136416 736.179285,721.994182 732.323964,721.994182 L726.041045,721.994182 L726.041045,725.992121 L726.041045,731.989805 Z M751.030102,738.274274 C759.02753,741.986978 764.595812,749.984406 764.595812,759.408009 C764.595812,772.403249 754.029719,782.826724 741.177097,782.826724 L720.328596,782.826724 L711.332845,782.826724 L711.332845,708.143238 L724.470703,708.143238 L726.041045,708.143238 L732.323964,708.143238 C743.891479,708.143238 753.315082,717.425773 753.315082,728.991738 C753.315082,732.27659 752.457827,735.417274 751.030102,738.274274 Z M798.008754,738.274429 C810.861377,743.700092 818,749.269924 818,761.835761 C818,775.401471 807.28974,782.826879 793.15356,782.826879 C781.158193,782.826879 772.87553,777.971685 768.020336,771.118297 L779.159998,762.120996 C782.158065,766.40417 786.156004,769.546404 792.725708,769.546404 C799.008627,769.546404 803.008116,766.40417 803.008116,762.120996 C803.008116,756.980567 798.866009,755.12344 792.011071,752.125373 L788.298366,750.555031 C777.445489,745.842455 770.305315,740.130006 770.305315,727.849403 C770.305315,716.568673 778.873213,708.000775 792.296305,708.000775 C800.721586,708.000775 807.148672,710.713607 811.861249,717.425928 L801.149439,726.279061 C798.723392,722.566357 796.153177,721.137082 792.296305,721.137082 C787.870514,721.137082 785.013514,723.994082 785.013514,727.564168 C785.013514,732.134128 787.870514,733.847087 794.29605,736.702536 L798.008754,738.274429 Z M333.563565,756.917474 C344.799339,756.917474 353.940808,749.27969 353.940808,739.893292 C353.940808,730.505343 344.799339,722.867559 333.563565,722.867559 L328.435537,722.867559 L328.435537,756.917474 L333.563565,756.917474 Z M368.667609,739.893292 C368.667609,748.648763 364.728577,756.587284 358.369699,762.336938 L371.865651,782.827344 L354.232243,782.827344 L345.600787,769.720491 C341.844678,770.965293 337.790932,771.644276 333.563565,771.644276 L328.435537,771.644276 L328.435537,782.754485 L313.708736,782.754485 L313.708736,708.072549 L328.435537,708.072549 L328.435537,708.140757 L333.563565,708.140757 C352.919233,708.140757 368.667609,722.38545 368.667609,739.893292 Z" id="tl_name_white"></path>
        </g>
    </g>
</svg>