<?xml version="1.0" encoding="UTF-8"?>
<svg width="635px" height="88px" viewBox="0 0 635 88" version="1.1" xmlns="http://www.w3.org/2000/svg" xmlns:xlink="http://www.w3.org/1999/xlink">
    <!-- Generator: Sketch 55 (78076) - https://sketchapp.com -->
    <title>tl_name_orange</title>
    <desc>Created with Sketch.</desc>
    <g id="Page-1" stroke="none" stroke-width="1" fill="none" fill-rule="evenodd">
        <g id="Artboard" transform="translate(-183.000000, -1145.000000)" fill="#E74525">
            <path d="M244.497748,1148.89009 L244.554955,1161.47568 L220.470721,1161.47568 L220.470721,1230.92523 L207.027027,1230.92523 L207.027027,1161.47568 L183,1161.47568 L183,1148.89009 L244.497748,1148.89009 Z M300.675225,1167.59685 L310.686486,1167.65405 L310.686486,1230.86802 L300.217568,1230.86802 L298.959009,1223.20225 C296.060496,1226.1389 292.647167,1228.41763 288.718919,1230.03851 C284.790671,1231.65939 280.55738,1232.46982 276.018919,1232.46982 C269.84051,1232.46982 264.234259,1231.03012 259.2,1228.15068 C254.165741,1225.27123 250.218483,1221.28584 247.358108,1216.19437 C244.497733,1211.1029 243.067568,1205.44898 243.067568,1199.23243 C243.067568,1192.97775 244.497733,1187.32382 247.358108,1182.2705 C250.218483,1177.21717 254.165741,1173.26037 259.2,1170.4 C264.234259,1167.53963 269.84051,1166.10946 276.018919,1166.10946 C280.595518,1166.10946 284.866947,1166.92942 288.833333,1168.56937 C292.79972,1170.20932 296.232118,1172.53572 299.130631,1175.54865 L300.675225,1167.59685 Z M262.174775,1214.10631 C266.103023,1218.03455 271.041862,1219.99865 276.991441,1219.99865 C282.941021,1219.99865 287.870326,1218.02502 291.779505,1214.0777 C295.688683,1210.13039 297.643243,1205.18201 297.643243,1199.23243 C297.643243,1193.28285 295.688683,1188.34401 291.779505,1184.41577 C287.870326,1180.48752 282.941021,1178.52342 276.991441,1178.52342 C271.041862,1178.52342 266.103023,1180.49705 262.174775,1184.44437 C258.246527,1188.39169 256.282432,1193.32099 256.282432,1199.23243 C256.282432,1205.18201 258.246527,1210.13992 262.174775,1214.10631 Z M359.598649,1167.31081 L365.204955,1167.31081 L365.204955,1179.61036 L358.34009,1179.61036 C353.000724,1179.61036 348.977191,1181.09773 346.269369,1184.07252 C343.561548,1187.04731 342.207658,1191.41409 342.207658,1197.17297 L342.207658,1230.92523 L329.221622,1230.92523 L329.221622,1167.65405 L338.031532,1167.65405 L340.205405,1176.29234 C344.705728,1170.30462 351.170078,1167.31081 359.598649,1167.31081 Z M416.462613,1230.92523 L397.527027,1203.92342 L389.632432,1203.92342 L389.632432,1230.92523 L376.646396,1230.92523 L376.646396,1145 L389.632432,1145 L389.632432,1192.13874 L397.641441,1192.13874 L414.689189,1167.65405 L430.135135,1167.65405 L408.682432,1198.03108 L432.366216,1230.92523 L416.462613,1230.92523 Z M492.71982,1167.59685 L502.731081,1167.65405 L502.731081,1230.86802 L492.262162,1230.86802 L491.003604,1223.20225 C488.105091,1226.1389 484.691761,1228.41763 480.763514,1230.03851 C476.835266,1231.65939 472.601975,1232.46982 468.063514,1232.46982 C461.885104,1232.46982 456.278854,1231.03012 451.244595,1228.15068 C446.210335,1225.27123 442.263077,1221.28584 439.402703,1216.19437 C436.542328,1211.1029 435.112162,1205.44898 435.112162,1199.23243 C435.112162,1192.97775 436.542328,1187.32382 439.402703,1182.2705 C442.263077,1177.21717 446.210335,1173.26037 451.244595,1170.4 C456.278854,1167.53963 461.885104,1166.10946 468.063514,1166.10946 C472.640113,1166.10946 476.911542,1166.92942 480.877928,1168.56937 C484.844314,1170.20932 488.276712,1172.53572 491.175225,1175.54865 L492.71982,1167.59685 Z M454.219369,1214.10631 C458.147617,1218.03455 463.086457,1219.99865 469.036036,1219.99865 C474.985615,1219.99865 479.91492,1218.02502 483.824099,1214.0777 C487.733278,1210.13039 489.687838,1205.18201 489.687838,1199.23243 C489.687838,1193.28285 487.733278,1188.34401 483.824099,1184.41577 C479.91492,1180.48752 474.985615,1178.52342 469.036036,1178.52342 C463.086457,1178.52342 458.147617,1180.49705 454.219369,1184.44437 C450.291121,1188.39169 448.327027,1193.32099 448.327027,1199.23243 C448.327027,1205.18201 450.291121,1210.13992 454.219369,1214.10631 Z M565.43018,1218.39685 L599.525676,1218.39685 L599.525676,1230.92523 L551.929279,1230.92523 L551.929279,1148.89009 L565.43018,1148.89009 L565.43018,1218.39685 Z M662.167568,1167.59685 L672.178829,1167.65405 L672.178829,1230.86802 L661.70991,1230.86802 L660.451351,1223.20225 C657.552838,1226.1389 654.139509,1228.41763 650.211261,1230.03851 C646.283013,1231.65939 642.049722,1232.46982 637.511261,1232.46982 C631.332852,1232.46982 625.726602,1231.03012 620.692342,1228.15068 C615.658083,1225.27123 611.710825,1221.28584 608.85045,1216.19437 C605.990076,1211.1029 604.55991,1205.44898 604.55991,1199.23243 C604.55991,1192.97775 605.990076,1187.32382 608.85045,1182.2705 C611.710825,1177.21717 615.658083,1173.26037 620.692342,1170.4 C625.726602,1167.53963 631.332852,1166.10946 637.511261,1166.10946 C642.087861,1166.10946 646.359289,1166.92942 650.325676,1168.56937 C654.292062,1170.20932 657.72446,1172.53572 660.622973,1175.54865 L662.167568,1167.59685 Z M623.667117,1214.10631 C627.595365,1218.03455 632.534204,1219.99865 638.483784,1219.99865 C644.433363,1219.99865 649.362668,1218.02502 653.271847,1214.0777 C657.181026,1210.13039 659.135586,1205.18201 659.135586,1199.23243 C659.135586,1193.28285 657.181026,1188.34401 653.271847,1184.41577 C649.362668,1180.48752 644.433363,1178.52342 638.483784,1178.52342 C632.534204,1178.52342 627.595365,1180.49705 623.667117,1184.44437 C619.738869,1188.39169 617.774775,1193.32099 617.774775,1199.23243 C617.774775,1205.18201 619.738869,1210.13992 623.667117,1214.10631 Z M724.580631,1166.10946 C734.115213,1166.10946 741.981125,1169.24629 748.178604,1175.52005 C754.376082,1181.7938 757.474775,1189.71692 757.474775,1199.28964 C757.474775,1208.78608 754.376082,1216.69013 748.178604,1223.00203 C741.981125,1229.31392 734.115213,1232.46982 724.580631,1232.46982 C715.6944,1232.46982 708.238469,1229.55228 702.212613,1223.71712 L700.553604,1230.92523 L690.713964,1230.92523 L690.713964,1145 L703.7,1145 L703.7,1173.48919 C709.573303,1168.56934 716.533443,1166.10946 724.580631,1166.10946 Z M708.677027,1214.0491 C712.643413,1218.01549 717.601322,1219.99865 723.550901,1219.99865 C729.50048,1219.99865 734.429785,1218.03455 738.338964,1214.10631 C742.248143,1210.17806 744.202703,1205.23922 744.202703,1199.28964 C744.202703,1193.34006 742.248143,1188.39169 738.338964,1184.44437 C734.429785,1180.49705 729.50048,1178.52342 723.550901,1178.52342 C717.601322,1178.52342 712.652948,1180.50659 708.705631,1184.47297 C704.758314,1188.43936 702.784685,1193.3782 702.784685,1199.28964 C702.784685,1205.16294 704.748779,1210.08271 708.677027,1214.0491 Z M810.963514,1226.97793 C806.272499,1230.63921 800.075114,1232.46982 792.371171,1232.46982 C784.667229,1232.46982 778.479378,1230.50573 773.807432,1226.57748 C769.135487,1222.64923 766.704205,1217.40529 766.513514,1210.8455 L779.213514,1210.8455 C779.366067,1214.08725 780.691354,1216.59481 783.189414,1218.36824 C785.687475,1220.14168 788.900581,1221.02838 792.828829,1221.02838 C796.413832,1221.02838 799.369508,1220.29423 801.695946,1218.8259 C804.022384,1217.35758 805.185586,1215.34581 805.185586,1212.79054 C805.185586,1211.64639 804.909087,1210.61667 804.356081,1209.70135 C803.803075,1208.78603 803.135665,1208.05188 802.353829,1207.49887 C801.571993,1206.94587 800.465998,1206.44054 799.035811,1205.98288 C797.605623,1205.52522 796.328009,1205.18198 795.202928,1204.95315 C794.077847,1204.72432 792.561871,1204.43829 790.654955,1204.09505 C788.7099,1203.7518 787.165321,1203.46577 786.021171,1203.23694 C784.877021,1203.00811 783.389649,1202.63626 781.559009,1202.1214 C779.728369,1201.60653 778.250531,1201.06307 777.12545,1200.49099 C776.00037,1199.91892 774.770427,1199.15616 773.435586,1198.2027 C772.100744,1197.24924 771.06149,1196.19092 770.317793,1195.0277 C769.574095,1193.86448 768.944822,1192.44385 768.429955,1190.76577 C767.915088,1189.08768 767.657658,1187.238 767.657658,1185.21667 C767.657658,1179.53406 769.91732,1174.92892 774.436712,1171.40113 C778.956104,1167.87333 784.87699,1166.10946 792.19955,1166.10946 C799.522109,1166.10946 805.404858,1167.94961 809.847973,1171.62995 C814.291088,1175.3103 816.569819,1180.22054 816.684234,1186.36081 L804.384685,1186.36081 C804.27027,1183.38602 803.126137,1181.10729 800.952252,1179.52455 C798.778368,1177.94181 795.765485,1177.15045 791.913514,1177.15045 C788.328511,1177.15045 785.487248,1177.84646 783.38964,1179.23851 C781.292032,1180.63056 780.243243,1182.48978 780.243243,1184.81622 C780.243243,1185.73154 780.395794,1186.54196 780.700901,1187.24752 C781.006008,1187.95308 781.530402,1188.57282 782.274099,1189.10676 C783.017797,1189.64069 783.723345,1190.07928 784.390766,1190.42252 C785.058187,1190.76577 786.049768,1191.08994 787.365541,1191.39505 C788.681313,1191.70015 789.758705,1191.93851 790.597748,1192.11014 C791.436791,1192.28176 792.676268,1192.50105 794.316216,1192.76802 C800.494625,1193.79775 804.937674,1194.88468 807.645495,1196.02883 C814.129011,1198.81293 817.56141,1203.71363 817.942793,1210.73108 C817.980931,1211.18874 818,1211.68453 818,1212.21847 C818,1218.35874 815.654528,1223.27851 810.963514,1226.97793 Z" id="tl_name_orange"></path>
        </g>
    </g>
</svg>