<?xml version="1.0" encoding="UTF-8"?>
<svg width="410px" height="49px" viewBox="0 0 410 49" version="1.1" xmlns="http://www.w3.org/2000/svg" xmlns:xlink="http://www.w3.org/1999/xlink">
    <!-- Generator: Sketch 52.4 (67378) - http://www.bohemiancoding.com/sketch -->
    <title>Tarka Labs</title>
    <desc>Created with Sketch.</desc>
    <g id="Page-1" stroke="none" stroke-width="1" fill="none" fill-rule="evenodd">
        <path d="M0,-0.0002 L37.676,-0.0002 L37.676,9.4888 L23.582,9.4888 L23.582,48.2698 L14.094,48.2698 L14.094,9.4888 L0,9.4888 L0,-0.0002 Z M55.3612,39.4267 C59.0472,39.4267 62.4552,38.1367 65.0342,36.0177 L58.2172,19.0687 L55.3612,11.9757 L45.7812,36.0177 C48.3602,38.1367 51.6762,39.4267 55.3612,39.4267 Z M50.6642,0.0917 L60.1512,0.0917 L79.4962,48.2697 L70.0082,48.2697 L68.4422,44.4007 C64.6662,46.8877 60.1512,48.2697 55.3612,48.2697 C50.5712,48.2697 46.0572,46.8877 42.3732,44.4007 L40.8072,48.2697 L31.3192,48.2697 L50.6642,0.0917 Z M165.0682,0.0918 L147.6582,26.7138 L166.4502,48.2698 L153.9222,48.2698 L142.3152,35.0048 L136.1432,44.4008 L136.1432,48.2698 L126.6552,48.2698 L126.6552,0.0918 L136.1432,0.0918 L136.1432,27.1748 L153.9222,0.0918 L165.0682,0.0918 Z M193.8075,39.4267 C197.4935,39.4267 200.9015,38.1367 203.4805,36.0177 L196.6635,19.0687 L193.8075,11.9757 L184.2275,36.0177 C186.8065,38.1367 190.1225,39.4267 193.8075,39.4267 Z M189.1105,0.0917 L198.5975,0.0917 L217.9425,48.2697 L208.4545,48.2697 L206.8885,44.4007 C203.1125,46.8877 198.5975,48.2697 193.8075,48.2697 C189.0175,48.2697 184.5035,46.8877 180.8195,44.4007 L179.2535,48.2697 L169.7655,48.2697 L189.1105,0.0917 Z M261.2333,0.0918 L261.2333,38.7808 L284.4473,38.7808 L284.4473,48.2698 L261.2333,48.2698 L251.7453,48.2698 L251.7453,38.7808 L251.7453,0.0918 L261.2333,0.0918 Z M313.0009,39.4267 C316.6859,39.4267 320.0939,38.1367 322.6729,36.0177 L315.8559,19.0687 L313.0009,11.9757 L303.4209,36.0177 C305.9999,38.1367 309.3159,39.4267 313.0009,39.4267 Z M308.3029,0.0917 L317.7909,0.0917 L337.1359,48.2697 L327.6469,48.2697 L326.0809,44.4007 C322.3049,46.8877 317.7909,48.2697 313.0009,48.2697 C308.2109,48.2697 303.6969,46.8877 300.0129,44.4007 L298.4459,48.2697 L288.9579,48.2697 L308.3029,0.0917 Z M360.0702,39.2422 C363.3862,39.2422 366.1502,36.5702 366.1502,33.1622 C366.1502,29.7542 363.3862,27.0832 360.0702,27.0832 L350.3062,27.0832 L350.3062,39.2422 L360.0702,39.2422 Z M350.3062,15.4752 L350.3062,18.0552 L354.3592,18.0552 C356.8462,18.0552 358.8732,16.0282 358.8732,13.5412 C358.8732,11.0542 356.8462,9.0272 354.3592,9.0272 L350.3062,9.0272 L350.3062,11.6062 L350.3062,15.4752 Z M366.4262,19.5292 C371.5852,21.9242 375.1772,27.0832 375.1772,33.1622 C375.1772,41.5452 368.3612,48.2692 360.0702,48.2692 L346.6212,48.2692 L340.8182,48.2692 L340.8182,0.0922 L349.2932,0.0922 L350.3062,0.0922 L354.3592,0.0922 C361.8212,0.0922 367.9002,6.0802 367.9002,13.5412 C367.9002,15.6602 367.3472,17.6862 366.4262,19.5292 Z M396.7313,19.5293 C405.0223,23.0293 409.6273,26.6223 409.6273,34.7283 C409.6273,43.4793 402.7183,48.2693 393.5993,48.2693 C385.8613,48.2693 380.5183,45.1373 377.3863,40.7163 L384.5723,34.9123 C386.5063,37.6753 389.0853,39.7023 393.3233,39.7023 C397.3763,39.7023 399.9563,37.6753 399.9563,34.9123 C399.9563,31.5963 397.2843,30.3983 392.8623,28.4643 L390.4673,27.4513 C383.4663,24.4113 378.8603,20.7263 378.8603,12.8043 C378.8603,5.5273 384.3873,0.0003 393.0463,0.0003 C398.4813,0.0003 402.6273,1.7503 405.6673,6.0803 L398.7573,11.7913 C397.1923,9.3963 395.5343,8.4743 393.0463,8.4743 C390.1913,8.4743 388.3483,10.3173 388.3483,12.6203 C388.3483,15.5683 390.1913,16.6733 394.3363,18.5153 L396.7313,19.5293 Z M97.1259,31.5556 C104.3739,31.5556 110.2709,26.6286 110.2709,20.5736 C110.2709,14.5176 104.3739,9.5906 97.1259,9.5906 L93.8179,9.5906 L93.8179,31.5556 L97.1259,31.5556 Z M119.7709,20.5736 C119.7709,26.2216 117.2299,31.3426 113.1279,35.0516 L121.8339,48.2696 L110.4589,48.2696 L104.8909,39.8146 C102.4679,40.6176 99.8529,41.0556 97.1259,41.0556 L93.8179,41.0556 L93.8179,48.2226 L84.3179,48.2226 L84.3179,0.0466 L93.8179,0.0466 L93.8179,0.0906 L97.1259,0.0906 C109.6119,0.0906 119.7709,9.2796 119.7709,20.5736 Z" id="Tarka-Labs" fill="#050706"></path>
    </g>
</svg>