<?xml version="1.0" encoding="utf-8"?>
<!-- Generator: Adobe Illustrator 22.1.0, SVG Export Plug-In . SVG Version: 6.00 Build 0)  -->
<svg version="1.1" id="Layer_1" xmlns="http://www.w3.org/2000/svg" xmlns:xlink="http://www.w3.org/1999/xlink" x="0px" y="0px"
	 viewBox="0 0 750 1334" style="enable-background:new 0 0 750 1334;" xml:space="preserve">
<path d="M625.7,932c-21.9-5.8-39.8-17.6-47.5-39.4c-10.8-30.5-20.2-61.5-29.1-92.6c-8.5-29.6-15.6-59.6-24-92.5
	c-3.2,5.9-5.2,9.1-6.9,12.5C484,786.6,449.7,853.2,415.9,920c-3.7,7.3-8,10-16.1,9.8c-19.4-0.6-38.9-0.2-59.8-0.2
	c2-4.4,3.2-7.3,4.7-10.1c50.9-94.5,102-188.8,152.6-283.5c2.9-5.5,4.4-13.8,2.5-19.4c-8.6-25.7-17.4-51.6-28.6-76.2
	c-7.4-16.2-21.6-27.1-40.6-29c-28-2.8-51.7,13.9-58.7,41.2c-1.3,5-2.1,10.1-3.3,16h-12.7c1.8-37.1,9.3-71.3,41.5-94.4
	c26.6-19,62.2-12.3,83.8,14.9c16.5,20.6,24.7,45.2,31.6,70.1c20.3,74.3,39.7,148.8,60.2,223c6.1,22,14,43.4,22.4,64.7
	c3.3,8.3,9.1,16.1,15.3,22.8c14.8,16.1,33.6,21.2,54.5,15.6c20.1-5.3,28.6-21.2,31.8-40c1.6-9.5,5.5-11.8,13.8-9
	c6.8,44-12.1,78.2-53.4,97.1C653.9,935,636.5,935.3,625.7,932z"/>
<path d="M187.4,463.3c-27.9,0.6-55.5-2.9-82.6,5.2c-23.6,7-37.1,24.7-47.3,45.3c-4.6,9.4-10.4,10.9-19.7,8.4
	c9.7-34.3,23.5-66.1,46.7-93.4c15.3-18,34.5-27.7,57.9-27.9c65.6-0.5,131.3-0.6,196.9-0.8c10.3,0,20.6,0,31.9,0c0,21.1,0,41.4,0,63
	c-16.5,0-32.7,0-48.8,0c-22.5,0-45,0.1-67.5-0.1c-6.1-0.1-9.2,1.2-9.8,8.3c-4.5,52.5-10.4,104.9-13.8,157.5
	c-1.6,24.5,0.2,49.4,3,73.8c2.9,25.9,17.9,39.3,41.4,41c22.5,1.7,40.3-11,48.3-34.3c0.8-2.4,1.5-4.9,2.1-7.4
	c3.1-12.3,3.1-12.3,17.5-9.7c-4.9,36.9-11.7,73.3-41.1,99.5c-27.7,24.8-60.9,24.8-93.6,12.4c-32.6-12.3-44.7-41.1-44.7-72.6
	c0-45.6,3.4-91.3,7.5-136.7c3.8-41.8,10.4-83.4,15.8-125.1C187.6,468.2,187.4,466.4,187.4,463.3z"/>
</svg>
