<?xml version="1.0" encoding="UTF-8"?>
<svg width="827px" height="214px" viewBox="0 0 827 214" version="1.1" xmlns="http://www.w3.org/2000/svg" xmlns:xlink="http://www.w3.org/1999/xlink">
    <!-- Generator: Sketch 52.5 (67469) - http://www.bohemiancoding.com/sketch -->
    <title>tarkalabs_black@3x</title>
    <desc>Created with Sketch.</desc>
    <g id="Page-1" stroke="none" stroke-width="1" fill="none" fill-rule="evenodd">
        <g id="Artboard" transform="translate(-83.000000, -185.000000)" fill="#000000">
            <path d="M406.550851,256.962674 L406.601062,268.009135 L385.462152,268.009135 L385.462152,328.965517 L373.662523,328.965517 L373.662523,268.009135 L352.573824,268.009135 L352.573824,256.962674 L406.550851,256.962674 Z M455.858237,273.381733 L464.645195,273.431944 L464.645195,328.915306 L455.456548,328.915306 L454.351902,322.187007 C451.807855,324.764527 448.811951,326.764586 445.364099,328.187244 C441.916247,329.609901 438.200656,330.321219 434.217215,330.321219 C428.79438,330.321219 423.873733,329.057584 419.455126,326.530275 C415.03652,324.002966 411.571982,320.504954 409.06141,316.036136 C406.550838,311.567318 405.295571,306.604829 405.295571,301.148519 C405.295571,295.658735 406.550838,290.696246 409.06141,286.260902 C411.571982,281.825558 415.03652,278.352653 419.455126,275.842081 C423.873733,273.331509 428.79438,272.076242 434.217215,272.076242 C438.23413,272.076242 441.983195,272.795928 445.464521,274.235323 C448.945848,275.674717 451.958489,277.716618 454.502535,280.361088 L455.858237,273.381733 Z M422.066108,314.203428 C425.51396,317.65128 429.848816,319.37518 435.070806,319.37518 C440.292795,319.37518 444.619283,317.642912 448.050398,314.178322 C451.481513,310.713733 453.197044,306.370509 453.197044,301.148519 C453.197044,295.92653 451.481513,291.591674 448.050398,288.143822 C444.619283,284.69597 440.292795,282.972069 435.070806,282.972069 C429.848816,282.972069 425.51396,284.704338 422.066108,288.168927 C418.618256,291.633517 416.894356,295.960004 416.894356,301.148519 C416.894356,306.370509 418.618256,310.722102 422.066108,314.203428 Z M507.575761,273.130677 L512.496457,273.130677 L512.496457,283.926082 L506.471114,283.926082 C501.784713,283.926082 498.253229,285.23156 495.876554,287.842555 C493.499879,290.453549 492.31156,294.286298 492.31156,299.340917 L492.31156,328.965517 L480.91362,328.965517 L480.91362,273.431944 L488.646143,273.431944 L490.554168,281.013833 C494.504134,275.758369 500.177942,273.130677 507.575761,273.130677 Z M557.485681,328.965517 L540.865778,305.265837 L533.936634,305.265837 L533.936634,328.965517 L522.538694,328.965517 L522.538694,253.548313 L533.936634,253.548313 L533.936634,294.922332 L540.9662,294.922332 L555.929134,273.431944 L569.486155,273.431944 L550.65696,300.094084 L571.444391,328.965517 L557.485681,328.965517 Z M624.417194,273.381733 L633.204152,273.431944 L633.204152,328.915306 L624.015505,328.915306 L622.910859,322.187007 C620.366812,324.764527 617.370908,326.764586 613.923056,328.187244 C610.475204,329.609901 606.759613,330.321219 602.776172,330.321219 C597.353337,330.321219 592.43269,329.057584 588.014083,326.530275 C583.595477,324.002966 580.130939,320.504954 577.620367,316.036136 C575.109795,311.567318 573.854528,306.604829 573.854528,301.148519 C573.854528,295.658735 575.109795,290.696246 577.620367,286.260902 C580.130939,281.825558 583.595477,278.352653 588.014083,275.842081 C592.43269,273.331509 597.353337,272.076242 602.776172,272.076242 C606.793087,272.076242 610.542152,272.795928 614.023478,274.235323 C617.504805,275.674717 620.517446,277.716618 623.061492,280.361088 L624.417194,273.381733 Z M590.625065,314.203428 C594.072917,317.65128 598.407773,319.37518 603.629763,319.37518 C608.851752,319.37518 613.17824,317.642912 616.609355,314.178322 C620.04047,310.713733 621.756001,306.370509 621.756001,301.148519 C621.756001,295.92653 620.04047,291.591674 616.609355,288.143822 C613.17824,284.69597 608.851752,282.972069 603.629763,282.972069 C598.407773,282.972069 594.072917,284.704338 590.625065,288.168927 C587.177213,291.633517 585.453313,295.960004 585.453313,301.148519 C585.453313,306.370509 587.177213,310.722102 590.625065,314.203428 Z M688.235614,317.969267 L718.161482,317.969267 L718.161482,328.965517 L676.385773,328.965517 L676.385773,256.962674 L688.235614,256.962674 L688.235614,317.969267 Z M773.142732,273.381733 L781.92969,273.431944 L781.92969,328.915306 L772.741043,328.915306 L771.636396,322.187007 C769.09235,324.764527 766.096446,326.764586 762.648594,328.187244 C759.200742,329.609901 755.485151,330.321219 751.50171,330.321219 C746.078875,330.321219 741.158228,329.057584 736.739621,326.530275 C732.321014,324.002966 728.856477,320.504954 726.345905,316.036136 C723.835333,311.567318 722.580066,306.604829 722.580066,301.148519 C722.580066,295.658735 723.835333,290.696246 726.345905,286.260902 C728.856477,281.825558 732.321014,278.352653 736.739621,275.842081 C741.158228,273.331509 746.078875,272.076242 751.50171,272.076242 C755.518625,272.076242 759.26769,272.795928 762.749016,274.235323 C766.230343,275.674717 769.242984,277.716618 771.78703,280.361088 L773.142732,273.381733 Z M739.350603,314.203428 C742.798455,317.65128 747.133311,319.37518 752.3553,319.37518 C757.57729,319.37518 761.903777,317.642912 765.334892,314.178322 C768.766007,310.713733 770.481539,306.370509 770.481539,301.148519 C770.481539,295.92653 768.766007,291.591674 765.334892,288.143822 C761.903777,284.69597 757.57729,282.972069 752.3553,282.972069 C747.133311,282.972069 742.798455,284.704338 739.350603,288.168927 C735.902751,291.633517 734.17885,295.960004 734.17885,301.148519 C734.17885,306.370509 735.902751,310.722102 739.350603,314.203428 Z M827.923138,272.076242 C836.291711,272.076242 843.19568,274.829461 848.635253,280.335982 C854.074825,285.842503 856.794571,292.796683 856.794571,301.19873 C856.794571,309.533829 854.074825,316.471272 848.635253,322.011268 C843.19568,327.551263 836.291711,330.321219 827.923138,330.321219 C820.123628,330.321219 813.579502,327.760474 808.290563,322.638908 L806.834439,328.965517 L798.198115,328.965517 L798.198115,253.548313 L809.596054,253.548313 L809.596054,278.553485 C814.751095,274.235301 820.860062,272.076242 827.923138,272.076242 Z M813.964428,314.153217 C817.445754,317.634543 821.797347,319.37518 827.019336,319.37518 C832.241326,319.37518 836.567813,317.65128 839.998928,314.203428 C843.430043,310.755576 845.145575,306.42072 845.145575,301.19873 C845.145575,295.976741 843.430043,291.633517 839.998928,288.168927 C836.567813,284.704338 832.241326,282.972069 827.019336,282.972069 C821.797347,282.972069 817.454122,284.712706 813.989533,288.194033 C810.524944,291.675359 808.792675,296.010215 808.792675,301.19873 C808.792675,306.353772 810.516576,310.67189 813.964428,314.153217 Z M903.742031,325.500945 C899.624693,328.714477 894.185202,330.321219 887.423395,330.321219 C880.661588,330.321219 875.230466,328.597319 871.129865,325.149467 C867.029264,321.701615 864.89531,317.098969 864.727938,311.34139 L875.874822,311.34139 C876.008719,314.186705 877.171933,316.387607 879.3645,317.944162 C881.557066,319.500716 884.377233,320.278982 887.825085,320.278982 C890.971668,320.278982 893.565887,319.634611 895.607819,318.345851 C897.649751,317.057091 898.670701,315.291348 898.670701,313.048571 C898.670701,312.044342 898.428016,311.14055 897.942639,310.337167 C897.457262,309.533784 896.87147,308.889413 896.185247,308.404036 C895.499024,307.918659 894.528284,307.475131 893.272999,307.073439 C892.017713,306.671748 890.896341,306.370484 889.908849,306.169638 C888.921357,305.968792 887.590774,305.717739 885.91706,305.41647 C884.209871,305.115202 882.854182,304.864148 881.849953,304.663302 C880.845725,304.462457 879.540247,304.136087 877.933481,303.684184 C876.326715,303.232281 875.029605,302.75528 874.042114,302.253165 C873.054622,301.751051 871.975092,301.081575 870.803492,300.244718 C869.631892,299.407861 868.719731,298.478963 868.066982,297.457997 C867.414234,296.437031 866.861916,295.190132 866.410013,293.717264 C865.95811,292.244395 865.732162,290.620916 865.732162,288.846778 C865.732162,283.859109 867.715484,279.817149 871.682188,276.720776 C875.648891,273.624404 880.845697,272.076242 887.272762,272.076242 C893.699826,272.076242 898.863158,273.691352 902.762913,276.921621 C906.662668,280.15189 908.662727,284.461641 908.76315,289.851002 L897.967745,289.851002 C897.867322,287.240007 896.863108,285.239948 894.955073,283.850765 C893.047039,282.461582 890.402609,281.767001 887.021706,281.767001 C883.875122,281.767001 881.381325,282.377898 879.540239,283.599709 C877.699153,284.821521 876.778623,286.453368 876.778623,288.4953 C876.778623,289.298683 876.912519,290.010001 877.180313,290.629275 C877.448107,291.24855 877.908372,291.792499 878.561121,292.261139 C879.213869,292.729779 879.833134,293.114728 880.418934,293.415996 C881.004735,293.717265 881.875053,294.001792 883.029916,294.269587 C884.184779,294.537381 885.130414,294.746592 885.866848,294.897226 C886.603283,295.047861 887.691181,295.240335 889.130576,295.474655 C894.553411,296.378461 898.453108,297.332464 900.829782,298.336693 C906.520412,300.780316 909.533053,305.081698 909.867796,311.240968 C909.90127,311.64266 909.918007,312.077819 909.918007,312.546459 C909.918007,317.93582 907.859369,322.253939 903.742031,325.500945 Z M205.218213,276.675671 L131.428293,202.886025 C148.324401,191.593321 168.628494,185 190.476892,185 C249.247775,185 296.891626,232.643498 296.891626,291.414556 C296.891626,313.262524 290.298325,333.566183 279.005655,350.463333 L205.217222,276.676167 L205.218213,276.675671 Z M100.825744,233.428293 L159.67813,291.946304 L100.826238,350.463333 C89.5712814,333.718837 83,313.597526 83,291.945321 C83,270.293608 89.5707871,250.172789 100.825744,233.428293 Z M252.499024,381.065503 C235.439968,392.320387 214.94056,398.891131 192.881953,398.891626 L192.881953,378.892718 L135.463984,378.892718 L192.881953,322.213496 L252.499024,381.065503 Z" id="tarkalabs_black"></path>
        </g>
    </g>
</svg>