<?xml version="1.0" encoding="UTF-8"?>
<svg width="368px" height="367px" viewBox="0 0 368 367" version="1.1" xmlns="http://www.w3.org/2000/svg" xmlns:xlink="http://www.w3.org/1999/xlink">
    <!-- Generator: Sketch 52.4 (67378) - http://www.bohemiancoding.com/sketch -->
    <title>tl_icon_white</title>
    <desc>Created with Sketch.</desc>
    <g id="Page-1" stroke="none" stroke-width="1" fill="none" fill-rule="evenodd">
        <g id="Artboard" transform="translate(-316.000000, -538.000000)" fill="#FFFFFF">
            <path d="M524.910674,695.819069 L397.437268,568.790675 C426.625596,549.350358 461.70128,538 499.444779,538 C600.972528,538 683.278131,620.01797 683.278131,721.191964 C683.278131,758.803099 671.888086,793.755713 652.379796,822.844048 L524.908961,695.819922 L524.910674,695.819069 Z M346.919167,620.280304 L449,721.781157 L346.920024,823.280304 C327.39804,794.236586 316,759.335705 316,721.779452 C316,684.224051 327.397183,649.324023 346.919167,620.280304 Z M602,873.592959 C572.847951,892.968037 537.816719,904.279454 500.120989,904.280304 L500.120989,869.852551 L402,869.852551 L500.120989,772.280304 L602,873.592959 Z" id="tl_icon_white"></path>
        </g>
    </g>
</svg>