<?xml version="1.0" encoding="UTF-8"?>
<svg width="368px" height="367px" viewBox="0 0 368 367" version="1.1" xmlns="http://www.w3.org/2000/svg" xmlns:xlink="http://www.w3.org/1999/xlink">
    <!-- Generator: Sketch 52.4 (67378) - http://www.bohemiancoding.com/sketch -->
    <title>tl_icon_black</title>
    <desc>Created with Sketch.</desc>
    <g id="Page-1" stroke="none" stroke-width="1" fill="none" fill-rule="evenodd">
        <g id="Artboard" transform="translate(-316.000000, -95.000000)" fill="#000000">
            <path d="M524.910674,252.819069 L397.437268,125.790675 C426.625596,106.350358 461.70128,95 499.444779,95 C600.972528,95 683.278131,177.01797 683.278131,278.191964 C683.278131,315.803099 671.888086,350.755713 652.379796,379.844048 L524.908961,252.819922 L524.910674,252.819069 Z M346.919167,177.280304 L449,278.781157 L346.920024,380.280304 C327.39804,351.236586 316,316.335705 316,278.779452 C316,241.224051 327.397183,206.324023 346.919167,177.280304 Z M602,430.592959 C572.847951,449.968037 537.816719,461.279454 500.120989,461.280304 L500.120989,426.852551 L402,426.852551 L500.120989,329.280304 L602,430.592959 Z" id="tl_icon_black"></path>
        </g>
    </g>
</svg>