<?xml version="1.0" encoding="UTF-8"?>
<svg width="52px" height="52px" viewBox="0 0 52 52" version="1.1" xmlns="http://www.w3.org/2000/svg" xmlns:xlink="http://www.w3.org/1999/xlink">
    <!-- Generator: Sketch 52.4 (67378) - http://www.bohemiancoding.com/sketch -->
    <title>Combined Shape</title>
    <desc>Created with Sketch.</desc>
    <g id="Desktop" stroke="none" stroke-width="1" fill="none" fill-rule="evenodd">
        <g id="Projects-detail" transform="translate(-136.000000, -32.000000)" fill="#0D0A1A">
            <g id="Heading" transform="translate(136.000000, 32.000000)">
                <g id="logo">
                    <path d="M29.7129309,22.2876181 L11.7735849,4.34833892 C15.8812615,1.60292702 20.8174662,0 26.1291127,0 C40.4171237,0 52,11.5827904 52,25.8708442 C52,31.1823862 50.3970778,36.1184851 47.6516741,40.2264151 L29.7126898,22.2877387 L29.7129309,22.2876181 Z M4.33368381,11.7735849 L18.6415094,26.0001195 L4.33380397,40.2264151 C1.59756901,36.1555974 0,31.2638297 0,25.9998805 C0,20.7360508 1.59744884,15.8444026 4.33368381,11.7735849 Z M41.2075472,47.666224 C37.0602556,50.4024413 32.0765673,51.9998798 26.7138162,52 L26.7138162,47.1379902 L12.754717,47.1379902 L26.7138162,33.3584906 L41.2075472,47.666224 Z" id="Combined-Shape"></path>
                </g>
            </g>
        </g>
    </g>
</svg>