<?xml version="1.0" encoding="UTF-8"?>
<svg width="208px" height="52px" viewBox="0 0 208 52" version="1.1" xmlns="http://www.w3.org/2000/svg" xmlns:xlink="http://www.w3.org/1999/xlink">
    <!-- Generator: Sketch 52.4 (67378) - http://www.bohemiancoding.com/sketch -->
    <title>logo</title>
    <desc>Created with Sketch.</desc>
    <g id="Desktop" stroke="none" stroke-width="1" fill="none" fill-rule="evenodd">
        <g id="Projects-detail" transform="translate(-136.000000, -32.000000)" fill="#0D0A1A">
            <g id="Heading" transform="translate(136.000000, 32.000000)">
                <g id="logo">
                    <path d="M67,18 L80.2689455,18 L80.2689455,21.3418894 L75.3052414,21.3418894 L75.3052414,35 L71.9637042,35 L71.9637042,21.3418894 L67,21.3418894 L67,18 Z M86.4974539,31.8855873 C87.7952579,31.8855873 88.9955065,31.4312679 89.9037932,30.6849865 L87.503296,24.7157924 L86.4974539,22.2177398 L83.1235156,30.6849865 C84.0318024,31.4312679 85.1996499,31.8855873 86.4974539,31.8855873 Z M84.8428859,18.0323659 L88.184423,18.0323659 L94.9974539,34.9999648 L91.6559167,34.9999648 L91.104394,33.6373586 C89.7741889,34.5132443 88.184423,34.9999648 86.4974539,34.9999648 C84.8104848,34.9999648 83.2207189,34.5132443 81.923267,33.6373586 L81.3717444,34.9999648 L78.0302072,34.9999648 L84.8428859,18.0323659 Z M101.420298,30.5876072 C104.015554,30.5876072 106.156843,28.4466708 106.156843,25.8186617 C106.156843,23.2234058 104.015554,21.0821173 101.420298,21.0821173 L100.284852,21.0821173 L100.284852,30.5876072 L101.420298,30.5876072 Z M109.238819,25.8186617 C109.238819,27.7975927 108.49289,29.5821173 107.32469,30.9447234 L109.693139,34.9997887 L106.221645,34.9997887 L104.923841,32.7940501 C103.885598,33.3452206 102.685349,33.6371825 101.420298,33.6371825 L100.284852,33.6371825 L100.284852,34.9997887 L96.9433147,34.9997887 L96.9433147,18.032542 L99.376213,18.032542 L100.284852,18.032542 L101.420298,18.032542 C105.734924,18.032542 109.238819,21.5364367 109.238819,25.8186617 Z M125.134717,18.0324011 L119.003166,27.4082867 L125.621086,35 L121.209256,35 L117.121438,30.3282577 L114.947748,33.6373938 L114.947748,35 L111.606211,35 L111.606211,18.0324011 L114.947748,18.0324011 L114.947748,27.5706443 L121.209256,18.0324011 L125.134717,18.0324011 Z M135.25625,31.8855873 C136.554054,31.8855873 137.754303,31.4312679 138.66259,30.6849865 L136.262092,24.7157924 L135.25625,22.2177398 L131.882312,30.6849865 C132.790599,31.4312679 133.958446,31.8855873 135.25625,31.8855873 Z M133.601682,18.0323659 L136.943219,18.0323659 L143.75625,34.9999648 L140.414713,34.9999648 L139.86319,33.6373586 C138.532985,34.5132443 136.943219,34.9999648 135.25625,34.9999648 C133.569281,34.9999648 131.979515,34.5132443 130.682063,33.6373586 L130.130541,34.9999648 L126.789004,34.9999648 L133.601682,18.0323659 Z M155.109517,18.0324011 L155.109517,31.6581106 L163.284802,31.6581106 L163.284802,35 L155.109517,35 L151.76798,35 L151.76798,31.6581106 L151.76798,18.0324011 L155.109517,18.0324011 Z M173.341322,31.8855873 C174.639126,31.8855873 175.839374,31.4312679 176.747661,30.6849865 L174.346812,24.7157924 L173.341322,22.2177398 L169.967383,30.6849865 C170.87567,31.4312679 172.043518,31.8855873 173.341322,31.8855873 Z M171.686754,18.0323659 L175.028291,18.0323659 L181.841322,34.9999648 L178.499432,34.9999648 L177.94791,33.6373586 C176.618057,34.5132443 175.028291,34.9999648 173.341322,34.9999648 C171.654353,34.9999648 170.064235,34.5132443 168.766783,33.6373586 L168.21526,34.9999648 L164.873723,34.9999648 L171.686754,18.0323659 Z M189.918805,31.8206091 C191.0863,31.8206091 192.059741,30.8795691 192.059741,29.6793205 C192.059741,28.4790719 191.0863,27.5383841 189.918805,27.5383841 L186.479712,27.5383841 L186.479712,31.8206091 L189.918805,31.8206091 Z M186.479712,23.4502134 L186.479712,24.3588523 L187.90712,24.3588523 C188.783006,24.3588523 189.496886,23.644972 189.496886,22.7690864 C189.496886,21.8932007 188.783006,21.1793205 187.90712,21.1793205 L186.479712,21.1793205 L186.479712,22.0876072 L186.479712,23.4502134 Z M192.156944,24.8779739 C193.974222,25.7214585 195.238921,27.5383841 195.238921,29.6793205 C195.238921,32.6316926 192.838423,34.9997887 189.918805,34.9997887 L185.18226,34.9997887 L183.138175,34.9997887 L183.138175,18.032542 L186.122948,18.032542 L186.479712,18.032542 L187.90712,18.032542 C190.535129,18.032542 192.676066,20.1414295 192.676066,22.7690864 C192.676066,23.5153677 192.481659,24.2288958 192.156944,24.8779739 Z M202.829965,24.8780091 C205.749584,26.1106588 207.371751,27.3760617 207.371751,30.2308784 C207.371751,33.3128548 204.9385,34.9998239 201.726919,34.9998239 C199.001707,34.9998239 197.119979,33.8967785 196.016934,32.3397659 L198.54774,30.2956805 C199.228515,31.2687694 200.137154,31.9826497 201.629716,31.9826497 C203.057125,31.9826497 203.965411,31.2687694 203.965411,30.2956805 C203.965411,29.127833 203.024723,28.7059146 201.467359,28.0247877 L200.623874,27.6680236 C198.158222,26.5973793 196.536056,25.2995753 196.536056,22.5095608 C196.536056,19.946706 198.482585,18.0001761 201.532161,18.0001761 C203.44629,18.0001761 204.906451,18.6165009 205.977096,20.1414647 L203.543493,22.1527968 C202.992322,21.3093122 202.408399,20.9845971 201.532161,20.9845971 C200.526671,20.9845971 199.877593,21.6336752 199.877593,22.4447586 C199.877593,23.4830019 200.526671,23.872167 201.986128,24.5208929 L202.829965,24.8780091 Z" id="Combined-Shape"></path>
                    <path d="M29.7129309,22.2876181 L11.7735849,4.34833892 C15.8812615,1.60292702 20.8174662,0 26.1291127,0 C40.4171237,0 52,11.5827904 52,25.8708442 C52,31.1823862 50.3970778,36.1184851 47.6516741,40.2264151 L29.7126898,22.2877387 L29.7129309,22.2876181 Z M4.33368381,11.7735849 L18.6415094,26.0001195 L4.33380397,40.2264151 C1.59756901,36.1555974 0,31.2638297 0,25.9998805 C0,20.7360508 1.59744884,15.8444026 4.33368381,11.7735849 Z M41.2075472,47.666224 C37.0602556,50.4024413 32.0765673,51.9998798 26.7138162,52 L26.7138162,47.1379902 L12.754717,47.1379902 L26.7138162,33.3584906 L41.2075472,47.666224 Z" id="Combined-Shape"></path>
                </g>
            </g>
        </g>
    </g>
</svg>