<?xml version="1.0" encoding="UTF-8"?>
<svg width="367px" height="366px" viewBox="0 0 367 366" version="1.1" xmlns="http://www.w3.org/2000/svg" xmlns:xlink="http://www.w3.org/1999/xlink">
    <!-- Generator: Sketch 55 (78076) - https://sketchapp.com -->
    <title>tl_icon_orange</title>
    <desc>Created with Sketch.</desc>
    <g id="Page-1" stroke="none" stroke-width="1" fill="none" fill-rule="evenodd">
        <g id="Artboard" transform="translate(-316.000000, -1054.000000)" fill="#E74525">
            <path d="M524.752471,1211.69829 L397.375598,1084.76711 C426.541822,1065.34167 461.590944,1054 499.30586,1054 C600.756725,1054 683,1135.9552 683,1237.05177 C683,1274.63412 671.618581,1309.55999 652.125064,1338.62606 L524.750759,1211.69915 L524.752471,1211.69829 Z M346.895753,1136.21734 L448.899282,1237.64051 L346.89661,1339.06199 C327.389409,1310.0405 316,1275.16632 316,1237.63881 C316,1200.11215 327.388552,1165.23883 346.895753,1136.21734 Z M601.783419,1389.33614 C572.653446,1408.69639 537.648743,1419.99915 499.981559,1420 L499.981559,1385.59859 L401.934874,1385.59859 L499.981559,1288.10102 L601.783419,1389.33614 Z" id="tl_icon_orange"></path>
        </g>
    </g>
</svg>