<?xml version="1.0" encoding="iso-8859-1"?>
<!-- Generator: Adobe Illustrator 25.0.0, SVG Export Plug-In . SVG Version: 6.00 Build 0)  -->
<!DOCTYPE svg [
  <!ENTITY ns_extend "http://ns.adobe.com/Extensibility/1.0/">
  <!ENTITY ns_ai "http://ns.adobe.com/AdobeIllustrator/10.0/">
  <!ENTITY ns_graphs "http://ns.adobe.com/Graphs/1.0/">
  <!ENTITY ns_vars "http://ns.adobe.com/Variables/1.0/">
  <!ENTITY ns_imrep "http://ns.adobe.com/ImageReplacement/1.0/">
  <!ENTITY ns_sfw "http://ns.adobe.com/SaveForWeb/1.0/">
  <!ENTITY ns_custom "http://ns.adobe.com/GenericCustomNamespace/1.0/">
  <!ENTITY ns_adobe_xpath "http://ns.adobe.com/XPath/1.0/">
]>
<svg version="1.2" baseProfile="tiny" id="Layer_1" xmlns:x="&ns_extend;" xmlns:i="&ns_ai;" xmlns:graph="&ns_graphs;" xmlns="http://www.w3.org/2000/svg" xmlns:xlink="http://www.w3.org/1999/xlink" x="0px" y="0px" viewBox="0 0 70.44 30" overflow="visible" xml:space="preserve">
  <metadata>
    <sfw xmlns="&ns_sfw;">
      <slices></slices>
      <sliceSourceBounds bottomLeftOrigin="true" height="41.48" width="70.44" x="26.78" y="-82.74"></sliceSourceBounds>
    </sfw>
  </metadata>
  <g fill="#ff1030">
    <path d="M8.04,17.52h-3.6V3.36H0V0h12.48v3.36H8.04V17.52z" />
    <path d="M17.71,17.52h-3.67L18.34,0h4.56l4.34,17.52h-3.67l-0.84-3.96h-4.18L17.71,17.52z M19.15,10.68h2.95l-0.84-4.22l-0.62-3.22
		c-0.19,1.07-0.39,2.14-0.6,3.19L19.15,10.68z" />
    <path d="M29.4,17.52V0h5.64c1.23,0,2.31,0.22,3.23,0.65S39.9,1.7,40.4,2.51s0.76,1.75,0.76,2.82c0,1.14-0.28,2.15-0.83,3.05
		c-0.55,0.9-1.3,1.54-2.24,1.94l3.31,7.2h-3.91l-2.83-6.62h-1.68v6.62H29.4z M35.04,7.78c0.8,0,1.42-0.2,1.86-0.6
		c0.44-0.4,0.66-0.96,0.66-1.68c0-0.75-0.22-1.33-0.67-1.75c-0.45-0.42-1.06-0.62-1.85-0.62h-2.06v4.66H35.04z" />
    <path d="M47.4,17.52h-3.6V0h3.6v6.79h1.7L51.98,0h3.91l-3.6,8.38l3.74,9.14h-3.96L49.1,10.1h-1.7V17.52z" />
    <path d="M60.91,17.52h-3.67L61.54,0h4.56l4.34,17.52h-3.67l-0.84-3.96h-4.18L60.91,17.52z M62.35,10.68h2.95l-0.84-4.22l-0.63-3.22
		c-0.19,1.07-0.39,2.14-0.6,3.19L62.35,10.68z" />
  </g>
  <g fill="#ff1030">
    <path d="M12,41.48H0.48v-3.36H12V41.48z" />
    <path d="M26.4,37.52H15.72V20h3.6v14.16h7.08V37.52z" />
    <path d="M32.11,37.52h-3.67L32.74,20h4.56l4.34,17.52h-3.67l-0.84-3.96h-4.18L32.11,37.52z M33.55,30.68h2.95l-0.84-4.22
		l-0.62-3.22c-0.19,1.07-0.39,2.14-0.6,3.19L33.55,30.68z" />
    <path d="M43.82,37.52V20h5.64c1.17,0,2.19,0.18,3.07,0.55c0.88,0.37,1.56,0.89,2.04,1.57c0.48,0.68,0.72,1.47,0.72,2.36
		c0,0.75-0.18,1.42-0.54,2c-0.36,0.58-0.84,1.04-1.44,1.36c-0.6,0.32-1.25,0.48-1.96,0.48v0.07c0.8-0.02,1.53,0.13,2.18,0.44
		c0.66,0.31,1.18,0.78,1.56,1.39c0.38,0.62,0.58,1.36,0.58,2.22c0,1.02-0.24,1.92-0.73,2.68c-0.49,0.76-1.18,1.35-2.09,1.76
		c-0.9,0.42-1.96,0.62-3.18,0.62H43.82z M49.42,27.06c0.7,0,1.26-0.19,1.66-0.56c0.4-0.38,0.6-0.88,0.6-1.52s-0.2-1.14-0.6-1.51
		c-0.4-0.37-0.95-0.55-1.66-0.55H47.3v4.15H49.42z M49.54,34.61c0.78,0,1.4-0.21,1.85-0.62c0.45-0.42,0.67-0.99,0.67-1.73
		s-0.22-1.32-0.67-1.74s-1.06-0.64-1.85-0.64H47.3v4.73H49.54z" />
    <path d="M60.64,37.14c-0.92-0.42-1.63-1-2.12-1.76c-0.5-0.76-0.74-1.64-0.74-2.65h3.6c0,0.59,0.23,1.06,0.68,1.4
		c0.46,0.34,1.08,0.52,1.86,0.52c0.75,0,1.34-0.17,1.76-0.5s0.64-0.8,0.64-1.39c0-0.51-0.16-0.95-0.48-1.32s-0.77-0.62-1.34-0.74
		l-1.78-0.41c-1.49-0.35-2.65-1-3.47-1.96c-0.82-0.95-1.24-2.12-1.24-3.49c0-1.02,0.24-1.92,0.71-2.68s1.14-1.35,2.02-1.76
		s1.89-0.62,3.06-0.62c1.79,0,3.21,0.44,4.26,1.33c1.05,0.89,1.57,2.08,1.57,3.59h-3.6c0-0.56-0.2-1-0.6-1.32
		c-0.4-0.32-0.96-0.48-1.68-0.48c-0.69,0-1.22,0.16-1.58,0.47c-0.37,0.31-0.55,0.76-0.55,1.33c0,0.51,0.15,0.95,0.45,1.32
		c0.29,0.37,0.71,0.61,1.26,0.72l1.87,0.43c1.55,0.37,2.73,1.01,3.53,1.93c0.8,0.92,1.2,2.08,1.2,3.49c0,1.02-0.25,1.93-0.76,2.71
		c-0.5,0.78-1.21,1.39-2.13,1.82c-0.91,0.43-1.97,0.65-3.19,0.65S61.56,37.55,60.64,37.14z" />
  </g>
</svg>