<?xml version="1.0" encoding="UTF-8"?>
<svg width="835px" height="214px" viewBox="0 0 835 214" version="1.1" xmlns="http://www.w3.org/2000/svg" xmlns:xlink="http://www.w3.org/1999/xlink">
    <!-- Generator: Sketch 52.4 (67378) - http://www.bohemiancoding.com/sketch -->
    <title>tarkalabs_white</title>
    <desc>Created with Sketch.</desc>
    <g id="Page-1" stroke="none" stroke-width="1" fill="none" fill-rule="evenodd">
        <g id="Artboard" transform="translate(-83.000000, -185.000000)" fill="#FFFFFF">
            <path d="M359,259 L410.414747,259 L410.414747,271.974394 L391.181297,271.974394 L391.181297,325 L378.23345,325 L378.23345,271.974394 L359,271.974394 L359,259 Z M434.548946,312.908751 C439.579065,312.908751 444.22981,311.144922 447.749255,308.247595 L438.446401,285.073076 L434.548946,275.374755 L421.47555,308.247595 C424.994995,311.144922 429.520192,312.908751 434.548946,312.908751 Z M428.139161,259.125656 L441.085644,259.125656 L467.484898,324.999863 L454.53705,324.999863 L452.4,319.709745 C447.247062,323.110242 441.085644,324.999863 434.548946,324.999863 C428.012248,324.999863 421.852195,323.110242 416.824805,319.709745 L414.687755,324.999863 L401.739907,324.999863 L428.139161,259.125656 Z M584.261167,259.125792 L560.502521,295.52629 L586.147121,325 L569.050721,325 L553.211169,306.862648 L544.788518,319.709882 L544.788518,325 L531.84067,325 L531.84067,259.125792 L544.788518,259.125792 L544.788518,296.156619 L569.050721,259.125792 L584.261167,259.125792 Z M623.480401,312.908751 C628.51052,312.908751 633.161264,311.144922 636.68071,308.247595 L627.377856,285.073076 L623.480401,275.374755 L610.407005,308.247595 C613.92645,311.144922 618.451647,312.908751 623.480401,312.908751 Z M617.070616,259.125656 L630.017099,259.125656 L656.416353,324.999863 L643.468505,324.999863 L641.331455,319.709745 C636.178517,323.110242 630.017099,324.999863 623.480401,324.999863 C616.943703,324.999863 610.783649,323.110242 605.75626,319.709745 L603.61921,324.999863 L590.671362,324.999863 L617.070616,259.125656 Z M715.493365,259.125792 L715.493365,312.025606 L747.17247,312.025606 L747.17247,325 L715.493365,325 L702.545517,325 L702.545517,312.025606 L702.545517,259.125792 L715.493365,259.125792 Z M786.138287,312.908751 C791.167041,312.908751 795.817786,311.144922 799.337231,308.247595 L790.034377,285.073076 L786.138287,275.374755 L773.06489,308.247595 C776.584336,311.144922 781.109532,312.908751 786.138287,312.908751 Z M779.727137,259.125656 L792.674985,259.125656 L819.074238,324.999863 L806.125026,324.999863 L803.987976,319.709745 C798.835038,323.110242 792.674985,324.999863 786.138287,324.999863 C779.601589,324.999863 773.441535,323.110242 768.414146,319.709745 L766.275731,324.999863 L753.327883,324.999863 L779.727137,259.125656 Z M850.371649,312.656482 C854.896845,312.656482 858.668752,309.003033 858.668752,304.343244 C858.668752,299.683456 854.896845,296.031374 850.371649,296.031374 L837.047156,296.031374 L837.047156,312.656482 L850.371649,312.656482 Z M837.047156,280.159652 L837.047156,283.687309 L842.578103,283.687309 C845.972001,283.687309 848.738157,280.915774 848.738157,277.515277 C848.738157,274.114779 845.972001,271.343244 842.578103,271.343244 L837.047156,271.343244 L837.047156,274.869534 L837.047156,280.159652 Z M859.045397,285.702722 C866.085653,288.977427 870.987494,296.031374 870.987494,304.343244 C870.987494,315.805395 861.686005,324.99918 850.371649,324.99918 L832.018402,324.99918 L824.099308,324.99918 L824.099308,259.126339 L835.66476,259.126339 L837.047156,259.126339 L842.578103,259.126339 C852.76116,259.126339 861.056899,267.313785 861.056899,277.515277 C861.056899,280.412604 860.302244,283.182772 859.045397,285.702722 Z M900.401407,285.702859 C911.715763,290.48844 918,295.401181 918,306.484587 C918,318.449907 908.571598,324.999316 896.127307,324.999316 C885.567606,324.999316 878.276254,320.716905 874.002154,314.672032 L883.808565,306.736172 C886.447809,310.514046 889.967254,313.285581 895.750663,313.285581 C901.28161,313.285581 904.80242,310.514046 904.80242,306.736172 C904.80242,302.202175 901.156062,300.564139 895.121557,297.919764 L891.853208,296.53468 C882.299257,292.378061 876.013655,287.339528 876.013655,276.507707 C876.013655,266.5578 883.556104,259.000684 895.372653,259.000684 C902.789554,259.000684 908.447414,261.393474 912.595966,267.313922 L903.166199,275.122623 C901.030513,271.847918 898.767915,270.587259 895.372653,270.587259 C891.476563,270.587259 888.961503,273.107209 888.961503,276.256122 C888.961503,280.286948 891.476563,281.797825 897.133058,284.316408 L900.401407,285.702859 Z M491.543359,302.146526 C501.434379,302.146526 509.48175,295.409795 509.48175,287.13074 C509.48175,278.850317 501.434379,272.113586 491.543359,272.113586 L487.029079,272.113586 L487.029079,302.146526 L491.543359,302.146526 Z M522.445974,287.13074 C522.445974,294.8533 518.978385,301.855289 513.38057,306.926638 L525.261258,324.999727 L509.738306,324.999727 L502.139906,313.43913 C498.833346,314.537079 495.264773,315.13596 491.543359,315.13596 L487.029079,315.13596 L487.029079,324.935463 L474.064856,324.935463 L474.064856,259.06399 L487.029079,259.06399 L487.029079,259.124152 L491.543359,259.124152 C508.582443,259.124152 522.445974,271.688353 522.445974,287.13074 Z M205.280139,276.722121 L131.45283,202.895087 C148.357499,191.596661 168.67188,185 190.531349,185 C249.332009,185 297,232.667638 297,291.468474 C297,313.327512 290.403359,333.641458 279.104967,350.54717 L205.279146,276.722617 L205.280139,276.722121 Z M100.834776,233.45283 L159.716981,292.000492 L100.83527,350.54717 C89.5746109,333.794189 83,313.662684 83,291.999508 C83,270.336824 89.5741164,250.205811 100.834776,233.45283 Z M252.584906,381.164845 C235.517206,392.425431 215.007411,398.999505 192.937628,399 L192.937628,378.99096 L135.490566,378.99096 L192.937628,322.283019 L252.584906,381.164845 Z" id="tarkalabs_white"></path>
        </g>
    </g>
</svg>