<?xml version="1.0" encoding="UTF-8"?>
<svg width="827px" height="214px" viewBox="0 0 827 214" version="1.1" xmlns="http://www.w3.org/2000/svg" xmlns:xlink="http://www.w3.org/1999/xlink">
    <!-- Generator: Sketch 55 (78076) - https://sketchapp.com -->
    <title>tarkalabs_white copy@3x</title>
    <desc>Created with Sketch.</desc>
    <g id="Page-1" stroke="none" stroke-width="1" fill="none" fill-rule="evenodd">
        <g id="Artboard" transform="translate(-83.000000, -959.000000)" fill="#E74525">
            <path d="M406.582933,1030.99914 L406.633149,1042.05119 L385.492143,1042.05119 L385.492143,1103.03846 L373.691344,1103.03846 L373.691344,1042.05119 L352.600554,1042.05119 L352.600554,1030.99914 L406.582933,1030.99914 Z M455.895208,1047.42651 L464.683037,1047.47675 L464.683037,1102.98822 L455.493479,1102.98822 L454.388723,1096.25652 C451.844424,1098.83534 448.848223,1100.83642 445.400029,1102.25979 C441.951835,1103.68317 438.235876,1104.39485 434.25204,1104.39485 C428.828667,1104.39485 423.907532,1103.13057 419.488487,1100.60199 C415.069443,1098.0734 411.604562,1094.57361 409.093741,1090.10253 C406.58292,1085.63145 405.327528,1080.66644 405.327528,1075.20737 C405.327528,1069.7148 406.58292,1064.7498 409.093741,1060.31221 C411.604562,1055.87462 415.069443,1052.39995 419.488487,1049.88811 C423.907532,1047.37626 428.828667,1046.12036 434.25204,1046.12036 C438.269354,1046.12036 442.01879,1046.84041 445.500461,1048.28054 C448.982133,1049.72066 451.995073,1051.7636 454.539371,1054.40941 L455.895208,1047.42651 Z M422.099728,1088.26889 C425.547922,1091.71849 429.883208,1093.44327 435.105715,1093.44327 C440.328222,1093.44327 444.655139,1091.71012 448.086594,1088.24377 C451.518049,1084.77743 453.233751,1080.432 453.233751,1075.20737 C453.233751,1069.98273 451.518049,1065.64568 448.086594,1062.19608 C444.655139,1058.74648 440.328222,1057.02171 435.105715,1057.02171 C429.883208,1057.02171 425.547922,1058.75486 422.099728,1062.2212 C418.651534,1065.68755 416.927463,1070.01623 416.927463,1075.20737 C416.927463,1080.432 418.651534,1084.7858 422.099728,1088.26889 Z M507.617859,1047.17533 L512.539044,1047.17533 L512.539044,1057.97621 L506.513104,1057.97621 C501.826238,1057.97621 498.294403,1059.28234 495.917492,1061.89466 C493.540582,1064.50698 492.352145,1068.34167 492.352145,1073.39885 L492.352145,1103.03846 L480.953075,1103.03846 L480.953075,1047.47675 L488.686365,1047.47675 L490.594579,1055.06248 C494.544937,1049.80435 500.219307,1047.17533 507.617859,1047.17533 Z M557.532729,1103.03846 L540.911177,1079.32677 L533.981347,1079.32677 L533.981347,1103.03846 L522.582277,1103.03846 L522.582277,1027.58305 L533.981347,1027.58305 L533.981347,1068.97803 L541.01161,1068.97803 L555.976027,1047.47675 L569.534392,1047.47675 L550.70333,1074.1524 L571.492823,1103.03846 L557.532729,1103.03846 Z M624.470878,1047.42651 L633.258707,1047.47675 L633.258707,1102.98822 L624.069149,1102.98822 L622.964393,1096.25652 C620.420095,1098.83534 617.423893,1100.83642 613.9757,1102.25979 C610.527506,1103.68317 606.811546,1104.39485 602.827711,1104.39485 C597.404338,1104.39485 592.483202,1103.13057 588.064158,1100.60199 C583.645113,1098.0734 580.180232,1094.57361 577.669411,1090.10253 C575.15859,1085.63145 573.903199,1080.66644 573.903199,1075.20737 C573.903199,1069.7148 575.15859,1064.7498 577.669411,1060.31221 C580.180232,1055.87462 583.645113,1052.39995 588.064158,1049.88811 C592.483202,1047.37626 597.404338,1046.12036 602.827711,1046.12036 C606.845024,1046.12036 610.59446,1046.84041 614.076132,1048.28054 C617.557803,1049.72066 620.570743,1051.7636 623.115042,1054.40941 L624.470878,1047.42651 Z M590.675398,1088.26889 C594.123592,1091.71849 598.458878,1093.44327 603.681385,1093.44327 C608.903893,1093.44327 613.230809,1091.71012 616.662264,1088.24377 C620.09372,1084.77743 621.809421,1080.432 621.809421,1075.20737 C621.809421,1069.98273 620.09372,1065.64568 616.662264,1062.19608 C613.230809,1058.74648 608.903893,1057.02171 603.681385,1057.02171 C598.458878,1057.02171 594.123592,1058.75486 590.675398,1062.2212 C587.227204,1065.68755 585.503133,1070.01623 585.503133,1075.20737 C585.503133,1080.432 587.227204,1084.7858 590.675398,1088.26889 Z M688.295626,1092.03664 L718.224461,1092.03664 L718.224461,1103.03846 L676.44461,1103.03846 L676.44461,1030.99914 L688.295626,1030.99914 L688.295626,1092.03664 Z M773.211163,1047.42651 L781.998992,1047.47675 L781.998992,1102.98822 L772.809434,1102.98822 L771.704678,1096.25652 C769.160379,1098.83534 766.164178,1100.83642 762.715984,1102.25979 C759.26779,1103.68317 755.551831,1104.39485 751.567995,1104.39485 C746.144622,1104.39485 741.223487,1103.13057 736.804442,1100.60199 C732.385398,1098.0734 728.920517,1094.57361 726.409696,1090.10253 C723.898875,1085.63145 722.643483,1080.66644 722.643483,1075.20737 C722.643483,1069.7148 723.898875,1064.7498 726.409696,1060.31221 C728.920517,1055.87462 732.385398,1052.39995 736.804442,1049.88811 C741.223487,1047.37626 746.144622,1046.12036 751.567995,1046.12036 C755.585309,1046.12036 759.334745,1046.84041 762.816416,1048.28054 C766.298088,1049.72066 769.311028,1051.7636 771.855326,1054.40941 L773.211163,1047.42651 Z M739.415683,1088.26889 C742.863877,1091.71849 747.199163,1093.44327 752.42167,1093.44327 C757.644177,1093.44327 761.971094,1091.71012 765.402549,1088.24377 C768.834004,1084.77743 770.549706,1080.432 770.549706,1075.20737 C770.549706,1069.98273 768.834004,1065.64568 765.402549,1062.19608 C761.971094,1058.74648 757.644177,1057.02171 752.42167,1057.02171 C747.199163,1057.02171 742.863877,1058.75486 739.415683,1062.2212 C735.967489,1065.68755 734.243418,1070.01623 734.243418,1075.20737 C734.243418,1080.432 735.967489,1084.7858 739.415683,1088.26889 Z M827.997,1046.12036 C836.366403,1046.12036 843.271057,1048.87498 848.711169,1054.38429 C854.151281,1059.8936 856.871296,1066.8513 856.871296,1075.25761 C856.871296,1083.59693 854.151281,1090.53789 848.711169,1096.08069 C843.271057,1101.62349 836.366403,1104.39485 827.997,1104.39485 C820.196717,1104.39485 813.651942,1101.83281 808.362479,1096.70865 L806.906211,1103.03846 L798.26903,1103.03846 L798.26903,1027.58305 L809.6681,1027.58305 L809.6681,1052.60089 C814.823652,1048.28051 820.933224,1046.12036 827.997,1046.12036 Z M814.036906,1088.21866 C817.518578,1091.70175 821.870602,1093.44327 827.093109,1093.44327 C832.315617,1093.44327 836.642533,1091.71849 840.073988,1088.26889 C843.505444,1084.81929 845.221145,1080.48224 845.221145,1075.25761 C845.221145,1070.03297 843.505444,1065.68755 840.073988,1062.2212 C836.642533,1058.75486 832.315617,1057.02171 827.093109,1057.02171 C821.870602,1057.02171 817.526947,1058.76323 814.062014,1062.24632 C810.597081,1065.72941 808.864641,1070.06646 808.864641,1075.25761 C808.864641,1080.41526 810.588712,1084.73557 814.036906,1088.21866 Z M903.823412,1099.57213 C899.705665,1102.78729 894.265635,1104.39485 887.503157,1104.39485 C880.74068,1104.39485 875.309019,1102.67008 871.208012,1099.22048 C867.107004,1095.77088 864.972838,1091.1659 864.80545,1085.4054 L875.953439,1085.4054 C876.08735,1088.25216 877.250679,1090.45418 879.443463,1092.01152 C881.636246,1093.56886 884.456693,1094.34752 887.904887,1094.34752 C891.051782,1094.34752 893.646258,1093.70283 895.688393,1092.41341 C897.730527,1091.124 898.751579,1089.35736 898.751579,1087.11345 C898.751579,1086.10871 898.50887,1085.20446 898.023444,1084.40067 C897.538019,1083.59688 896.95217,1082.95219 896.265879,1082.46656 C895.579587,1081.98094 894.608751,1081.53719 893.353341,1081.13529 C892.09793,1080.7334 890.976447,1080.43198 889.988858,1080.23103 C889.001268,1080.03008 887.670553,1079.7789 885.996672,1079.47748 C884.289314,1079.17606 882.933491,1078.92488 881.929163,1078.72393 C880.924835,1078.52299 879.619227,1078.19645 878.012302,1077.74432 C876.405377,1077.29219 875.108139,1076.81494 874.120549,1076.31258 C873.13296,1075.81021 872.053323,1075.14039 870.881606,1074.30311 C869.70989,1073.46583 868.797639,1072.53646 868.144825,1071.51498 C867.492012,1070.49349 866.93964,1069.24596 866.487692,1067.77235 C866.035744,1066.29873 865.809774,1064.67443 865.809774,1062.8994 C865.809774,1057.9092 867.793292,1053.86519 871.760389,1050.76725 C875.727486,1047.66931 880.924808,1046.12036 887.352509,1046.12036 C893.78021,1046.12036 898.944055,1047.73629 902.844196,1050.9682 C906.744338,1054.2001 908.744595,1058.51204 908.845028,1063.90413 L898.048552,1063.90413 C897.94812,1061.29181 896.943806,1059.29074 895.035582,1057.90085 C893.127359,1056.51096 890.482667,1055.81603 887.101428,1055.81603 C883.954533,1055.81603 881.460488,1056.42724 879.619219,1057.64967 C877.777951,1058.8721 876.85733,1060.50477 876.85733,1062.54774 C876.85733,1063.35153 876.991239,1064.06321 877.25906,1064.6828 C877.52688,1065.30238 877.987191,1065.84661 878.640004,1066.31549 C879.292818,1066.78436 879.912144,1067.16951 880.498002,1067.47093 C881.08386,1067.77235 881.954265,1068.05702 883.109243,1068.32495 C884.264221,1068.59288 885.209949,1068.8022 885.946456,1068.95291 C886.682964,1069.10362 887.77097,1069.29619 889.210507,1069.53063 C894.63388,1070.43489 898.533963,1071.38938 900.910874,1072.39412 C906.602068,1074.83898 909.615008,1079.14254 909.949784,1085.30493 C909.983261,1085.70683 910,1086.14221 910,1086.61108 C910,1092.00318 907.941158,1096.32348 903.823412,1099.57213 Z M205.230332,1050.72212 L131.433094,976.895087 C148.330878,965.596661 168.636984,959 190.487549,959 C249.264259,959 296.912834,1006.66764 296.912834,1065.46847 C296.912834,1087.32751 290.318879,1107.64146 279.025089,1124.54717 L205.22934,1050.72262 L205.230332,1050.72212 Z M100.827511,1007.45283 L159.685733,1066.00049 L100.828006,1124.54717 C89.571933,1107.79419 83,1087.66268 83,1065.99951 C83,1044.33682 89.5714386,1024.20581 100.827511,1007.45283 Z M252.515831,1155.16484 C235.455083,1166.42543 214.953642,1172.99951 192.892849,1173 L192.892849,1152.99096 L135.469186,1152.99096 L192.892849,1096.28302 L252.515831,1155.16484 Z" id="tarkalabs_white-copy"></path>
        </g>
    </g>
</svg>